<?xml version="1.0" encoding="UTF-8" standalone="no"?>
<!-- Created with Inkscape (http://www.inkscape.org/) -->

<svg
   width="210mm"
   height="297mm"
   viewBox="0 0 210 297"
   version="1.1"
   id="svg5"
   xml:space="preserve"
   inkscape:version="1.2 (dc2aedaf03, 2022-05-15)"
   sodipodi:docname="logo.svg"
   xmlns:inkscape="http://www.inkscape.org/namespaces/inkscape"
   xmlns:sodipodi="http://sodipodi.sourceforge.net/DTD/sodipodi-0.dtd"
   xmlns="http://www.w3.org/2000/svg"
   xmlns:svg="http://www.w3.org/2000/svg"><sodipodi:namedview
     id="namedview7"
     pagecolor="#505050"
     bordercolor="#eeeeee"
     borderopacity="1"
     inkscape:showpageshadow="0"
     inkscape:pageopacity="0"
     inkscape:pagecheckerboard="0"
     inkscape:deskcolor="#505050"
     inkscape:document-units="mm"
     showgrid="false"
     inkscape:zoom="0.069055877"
     inkscape:cx="6357.1707"
     inkscape:cy="3851.9531"
     inkscape:window-width="1896"
     inkscape:window-height="1001"
     inkscape:window-x="10"
     inkscape:window-y="65"
     inkscape:window-maximized="1"
     inkscape:current-layer="layer1" /><defs
     id="defs2" /><g
     inkscape:label="Layer 1"
     inkscape:groupmode="layer"
     id="layer1"><rect
       style="fill:#080808;fill-opacity:1;stroke-width:18.4436"
       id="rect739"
       width="1920"
       height="1920"
       x="-10.593578"
       y="-11.413808"
       inkscape:export-filename="logo.png"
       inkscape:export-xdpi="25.4"
       inkscape:export-ydpi="25.4" /><path
       id="circle2330"
       style="fill:#f9f9f9;fill-opacity:1;stroke-width:2.0449"
       d="M 949.34771,489.63424 A 458.95205,458.95205 0 0 0 669.64409,584.93444 458.95205,458.95205 0 0 1 848.66936,948.58662 458.95205,458.95205 0 0 1 669.4923,1312.1158 458.95205,458.95205 0 0 0 949.34771,1407.5381 458.95205,458.95205 0 0 0 1229.1624,1312.0862 458.95205,458.95205 0 0 1 1050.0262,948.58662 458.95205,458.95205 0 0 1 1229.3205,584.96958 458.95205,458.95205 0 0 0 949.34771,489.63424 Z" /></g></svg>
