<?xml version="1.0" encoding="UTF-8" standalone="no"?>
<!-- Created with Inkscape (http://www.inkscape.org/) -->

<svg
   width="210mm"
   height="297mm"
   viewBox="0 0 210 297"
   version="1.1"
   id="svg5"
   xml:space="preserve"
   inkscape:version="1.2 (dc2aedaf03, 2022-05-15)"
   sodipodi:docname="logo.svg"
   xmlns:inkscape="http://www.inkscape.org/namespaces/inkscape"
   xmlns:sodipodi="http://sodipodi.sourceforge.net/DTD/sodipodi-0.dtd"
   xmlns="http://www.w3.org/2000/svg"
   xmlns:svg="http://www.w3.org/2000/svg"><sodipodi:namedview
     id="namedview7"
     pagecolor="#505050"
     bordercolor="#eeeeee"
     borderopacity="1"
     inkscape:showpageshadow="0"
     inkscape:pageopacity="0"
     inkscape:pagecheckerboard="0"
     inkscape:deskcolor="#505050"
     inkscape:document-units="mm"
     showgrid="false"
     inkscape:zoom="0.069055877"
     inkscape:cx="3330.6362"
     inkscape:cy="2722.433"
     inkscape:window-width="1896"
     inkscape:window-height="1001"
     inkscape:window-x="10"
     inkscape:window-y="65"
     inkscape:window-maximized="1"
     inkscape:current-layer="layer1" /><defs
     id="defs2" /><g
     inkscape:label="Layer 1"
     inkscape:groupmode="layer"
     id="layer1"><rect
       style="fill:#080808;fill-opacity:1;stroke-width:18.4436"
       id="rect739"
       width="1920"
       height="1920"
       x="-10.593578"
       y="-11.413808" /><path
       id="circle2330"
       style="fill:#ffffff;fill-opacity:1;stroke-width:1.54319"
       d="M 949.36211,602.23606 A 346.3502,346.3502 0 0 0 738.28253,674.15478 346.3502,346.3502 0 0 1 873.38474,948.58651 346.3502,346.3502 0 0 1 738.16798,1222.9254 346.3502,346.3502 0 0 0 949.36211,1294.9363 346.3502,346.3502 0 0 0 1160.5255,1222.9031 346.3502,346.3502 0 0 1 1025.3396,948.58651 346.3502,346.3502 0 0 1 1160.6448,674.1813 346.3502,346.3502 0 0 0 949.36211,602.23606 Z" /></g></svg>
